<svg width="256" height="256" viewBox="0 0 256 256" fill="none" xmlns="http://www.w3.org/2000/svg">
<g transform="translate(28, 28) scale(0.57)">
<path d="M31.9859 160H77.5657C73.2476 176.32 61.4129 200.16 28.1476 208.48L15.9929 211.52V256H31.9859C76.4462 256 110.511 243.68 132.901 219.36C163.128 186.56 160.089 144.48 159.929 144V32C159.929 14.4 145.536 0 127.943 0H31.9859C14.3936 0 0 14.4 0 32V128C0 145.6 14.3936 160 31.9859 160ZM223.901 160H269.481C265.163 176.32 253.328 200.16 220.063 208.48L207.908 211.52V256H223.901C268.361 256 302.426 243.68 324.816 219.36C355.043 186.56 352.004 144.48 351.844 144V32C351.844 14.4 337.451 0 319.859 0H223.901C206.309 0 191.915 14.4 191.915 32V128C191.915 145.6 206.309 160 223.901 160Z" fill="#FFFFFF"/>
</g>
</svg>
