<svg width="320" height="320" viewBox="0 0 320 320" fill="none" xmlns="http://www.w3.org/2000/svg">
  <rect width="320" height="320" rx="32" fill="#F5F7FA"/>
  <rect x="28" y="28" width="264" height="264" rx="24" fill="#13284F"/>
  <rect x="52" y="52" width="56" height="56" rx="12" fill="#F5F7FA"/>
  <rect x="68" y="68" width="24" height="24" rx="6" fill="#13284F"/>
  <rect x="212" y="52" width="56" height="56" rx="12" fill="#F5F7FA"/>
  <rect x="228" y="68" width="24" height="24" rx="6" fill="#13284F"/>
  <rect x="52" y="212" width="56" height="56" rx="12" fill="#F5F7FA"/>
  <rect x="68" y="228" width="24" height="24" rx="6" fill="#13284F"/>
  <rect x="136" y="56" width="16" height="16" rx="4" fill="#76A0FF"/>
  <rect x="160" y="56" width="16" height="16" rx="4" fill="#F5F7FA"/>
  <rect x="184" y="56" width="16" height="16" rx="4" fill="#76A0FF"/>
  <rect x="136" y="88" width="16" height="16" rx="4" fill="#F5F7FA"/>
  <rect x="160" y="88" width="16" height="16" rx="4" fill="#76A0FF"/>
  <rect x="184" y="88" width="16" height="16" rx="4" fill="#F5F7FA"/>
  <rect x="136" y="136" width="16" height="16" rx="4" fill="#F5F7FA"/>
  <rect x="160" y="136" width="16" height="16" rx="4" fill="#76A0FF"/>
  <rect x="184" y="136" width="16" height="16" rx="4" fill="#F5F7FA"/>
  <rect x="200" y="160" width="16" height="16" rx="4" fill="#76A0FF"/>
  <rect x="176" y="176" width="16" height="16" rx="4" fill="#F5F7FA"/>
  <rect x="152" y="160" width="16" height="16" rx="4" fill="#76A0FF"/>
  <rect x="128" y="176" width="16" height="16" rx="4" fill="#F5F7FA"/>
  <rect x="152" y="192" width="16" height="16" rx="4" fill="#F5F7FA"/>
  <rect x="176" y="208" width="16" height="16" rx="4" fill="#76A0FF"/>
  <rect x="200" y="224" width="16" height="16" rx="4" fill="#F5F7FA"/>
  <rect x="224" y="160" width="16" height="16" rx="4" fill="#F5F7FA"/>
  <rect x="248" y="184" width="16" height="16" rx="4" fill="#76A0FF"/>
  <rect x="120" y="232" width="16" height="16" rx="4" fill="#76A0FF"/>
  <rect x="144" y="232" width="16" height="16" rx="4" fill="#F5F7FA"/>
  <rect x="168" y="232" width="16" height="16" rx="4" fill="#76A0FF"/>
  <text x="160" y="304" text-anchor="middle" fill="#13284F" font-size="16" font-family="Arial, sans-serif">Scan for NEXNC</text>
</svg>
